<?xml version="1.0" encoding="UTF-8"?>
<svg width="60px" height="57px" viewBox="0 0 60 57" version="1.1" xmlns="http://www.w3.org/2000/svg" xmlns:xlink="http://www.w3.org/1999/xlink">
    <title>Logo</title>
    <g id="Symbols" stroke="none" stroke-width="1" fill="none" fill-rule="evenodd">
        <g id="Header" transform="translate(-12.000000, -20.000000)" fill-rule="nonzero">
            <g id="Logo" transform="translate(12.000000, 20.000000)">
                <path d="M23.9824914,54.8043298 C21.4369522,59.2297803 13.7908363,56.6226127 11.0933246,50.0517807 C7.52197108,41.3163261 13.8098329,40.5947852 14.1992624,37.5450725 C14.6171867,34.3318106 17.1912208,26.673857 20.7340795,26.4237228 C25.4832198,26.0773832 27.791302,29.0020288 29.9189168,28.0399743 C32.0465317,27.0779199 38.4673694,21.4402807 41.734778,25.384704 C45.0021865,29.3291273 45.1161659,32.167188 48.1271208,33.0811398 C51.1380758,33.9950915 56.9890167,39.6134896 52.1543918,47.7043678 C47.6522068,55.2949775 44.308812,50.4847052 40.7374585,50.4847052 C38.011452,50.4847052 35.3234385,52.8706003 32.834889,52.7551537 C30.3463395,52.6397072 26.1291029,51.081179 23.9824914,54.8043298 Z" id="Path" fill="#E18A37"></path>
                <path d="M11.8716649,18.4112398 C10.6292864,14.2786665 9.86330865,4.52039911 15.7389183,3.07544342 C20.2413727,1.96764406 27.9571971,13.3153628 23.8190491,20.3282144 C19.6809012,27.341066 13.2354789,22.9484007 11.8716649,18.4112398 Z" id="Path" fill="#E18A37"></path>
                <path d="M29.0176137,11.4009358 C28.7620718,5.82626152 31.308026,0.223096614 35.2925863,0.00466815103 C39.2771465,-0.213760312 43.4036745,7.27928565 42.9683069,12.7969785 C42.5329392,18.3146715 39.5610819,19.8531676 36.2295731,19.9956209 C32.8980643,20.1380743 29.2069039,16.7951691 29.0176137,11.4009358 Z" id="Path" fill="#E18A37"></path>
                <path d="M1.38963924,34.7068832 C-0.496502425,32.1340698 -0.609670925,24.5278981 1.96491244,22.0392859 C4.53949581,19.5506737 9.0662358,21.6837699 11.6502499,26.8106852 C14.234264,31.9376005 12.8573805,35.9044108 9.64150901,37.4855216 C6.70855873,38.926297 3.19090453,37.1300055 1.38963924,34.7068832 Z" id="Path" fill="#E18A37"></path>
                <path d="M59.6360816,17.8407522 C59.3663912,16.9801411 58.8410662,16.2144262 58.1249278,15.6380907 C57.5199039,15.1893177 56.7678251,14.9645736 56.0053873,15.0047074 C54.1602706,15.1497453 52.5820313,16.339352 51.9919982,18.0298218 C51.4077846,16.339311 49.8318302,15.1485151 47.9884218,15.0047074 C47.222886,14.963972 46.4675125,15.1886605 45.8590687,15.6380907 C45.1349113,16.2271113 44.6089045,17.0102729 44.3479149,17.8880196 C43.6355334,20.3252075 44.0277098,22.9390368 45.4273105,25.0821199 C46.78273,27.1726463 48.6150774,28.9379186 50.7850377,30.2437214 L51.3934243,30.6313142 L51.9919982,31 L52.5905722,30.6407677 L53.1989588,30.2437214 C55.3696983,28.935667 57.2047723,27.171 58.5664987,25.0821199 C59.981797,22.9268519 60.3711521,20.2908114 59.6360816,17.8407522 L59.6360816,17.8407522 Z" id="Path" fill="#D2AF36"></path>
            </g>
        </g>
    </g>
</svg>